<?xml version="1.0" encoding="UTF-8"?>
<svg width="24px" height="24px" viewBox="0 0 24 24" version="1.1" xmlns="http://www.w3.org/2000/svg" xmlns:xlink="http://www.w3.org/1999/xlink">
    <!-- Generator: Sketch 48.1 (47250) - http://www.bohemiancoding.com/sketch -->
    <title>wode_icon_feedback</title>
    <desc>Created with Sketch.</desc>
    <defs>
        <linearGradient x1="-1.11022302e-14%" y1="50%" x2="100%" y2="50%" id="linearGradient-1">
            <stop stop-color="#FBAA58" offset="0%"></stop>
            <stop stop-color="#FA4DBE" offset="100%"></stop>
        </linearGradient>
    </defs>
    <g id="个人中心" stroke="none" stroke-width="1" fill="none" fill-rule="evenodd" transform="translate(-15.000000, -392.000000)">
        <g id="Group-12" transform="translate(15.000000, 392.000000)">
            <g id="wode_icon_feedback" transform="translate(2.000000, 1.000000)">
                <rect id="Rectangle-path" stroke="#979797" fill="#000000" fill-rule="nonzero" opacity="0" x="0" y="0" width="20" height="20" rx="2"></rect>
                <rect id="Rectangle-8" fill="url(#linearGradient-1)" opacity="0.300000012" x="8" y="8" width="11" height="8" rx="2"></rect>
                <path d="M9.75949546,13.2405045 C9.75949546,12.8315352 10.0910306,12.5 10.5,12.5 C10.9089694,12.5 11.2405045,12.8315352 11.2405045,13.2405045 C11.2405045,13.6494739 10.9089694,13.9810091 10.5,13.9810091 C10.0910306,13.9810091 9.75949546,13.6494739 9.75949546,13.2405045 Z M18.7041171,3 C19.4198134,3 20,3.58018655 20,4.29588294 L20,15.0547406 C20,15.770437 19.4198134,16.3506236 18.7041171,16.3506236 L13.1102785,16.3506236 L11.0235367,18.4377356 C10.7343698,18.7268152 10.2656302,18.7268152 9.97646329,18.4377356 L7.88972151,16.3506236 L2.29588294,16.3506236 C1.58018655,16.3506236 1,15.770437 1,15.0547406 L1,4.29588294 C1,3.58018655 1.58018655,3 2.29588294,3 L4.99872449,3 C5.40769385,3 5.73922902,3.33153517 5.73922902,3.74050454 C5.73922902,4.1494739 5.40769385,4.48100907 4.99872449,4.48100907 L3.22151361,4.48100907 C2.81254424,4.48100907 2.48100907,4.81254424 2.48100907,5.22151361 L2.48100907,14.12911 C2.48100907,14.5380793 2.81254424,14.8696145 3.22151361,14.8696145 L7.96599348,14.8696145 C8.30969249,14.8695897 8.63932354,15.0061036 8.88236784,15.2491231 L9.2433638,15.610119 L9.98386834,16.3506236 L10.5,16.8667552 L11.0161317,16.3506236 L12.1176322,15.2491231 C12.3606765,15.0061036 12.6903075,14.8695897 13.0340065,14.8696145 L17.7784864,14.8696145 C18.1874558,14.8696145 18.5189909,14.5380793 18.5189909,14.12911 L18.5189909,5.22151361 C18.5189909,4.81254424 18.1874558,4.48100907 17.7784864,4.48100907 L16.0012755,4.48100907 C15.5923061,4.48100907 15.260771,4.1494739 15.260771,3.74050454 C15.260771,3.33153517 15.5923061,3 16.0012755,3 L18.7041171,3 Z M10.5,11.3151927 C10.0910306,11.3151927 9.75949546,10.9836576 9.75949546,10.5746882 L9.75949546,3.74050454 C9.75949546,3.33153517 10.0910306,3 10.5,3 C10.9089694,3 11.2405045,3.33153517 11.2405045,3.74050454 L11.2405045,10.5746882 C11.2405045,10.9836576 10.9089694,11.3151927 10.5,11.3151927 Z" id="Combined-Shape" fill="url(#linearGradient-1)" fill-rule="nonzero"></path>
            </g>
        </g>
    </g>
</svg>